<mxfile host="app.diagrams.net" modified="2023-10-03T06:00:53.285Z" agent="Mozilla/5.0 (Windows NT 10.0; Win64; x64) AppleWebKit/537.36 (KHTML, like Gecko) Chrome/117.0.0.0 Safari/537.36 Edg/117.0.2045.47" etag="krqHiP0i1iqBiUmy5OkK" version="22.0.1" type="device">
  <diagram name="ページ1" id="HCFSNMKZYV7NzAdynqZK">
    <mxGraphModel dx="872" dy="481" grid="1" gridSize="10" guides="1" tooltips="1" connect="1" arrows="1" fold="1" page="1" pageScale="1" pageWidth="827" pageHeight="1169" math="0" shadow="0">
      <root>
        <mxCell id="0" />
        <mxCell id="1" parent="0" />
        <mxCell id="BJFS6aXyt-6OG1DivZ-b-2" value="&lt;font style=&quot;font-size: 18px;&quot;&gt;クライアント画面&lt;/font&gt;" style="whiteSpace=wrap;html=1;aspect=fixed;" parent="1" vertex="1">
          <mxGeometry x="80" y="160" width="120" height="120" as="geometry" />
        </mxCell>
        <mxCell id="BJFS6aXyt-6OG1DivZ-b-20" style="edgeStyle=orthogonalEdgeStyle;rounded=0;orthogonalLoop=1;jettySize=auto;html=1;exitX=1;exitY=0.25;exitDx=0;exitDy=0;fontFamily=Helvetica;fontSize=12;fontColor=default;entryX=0.25;entryY=1;entryDx=0;entryDy=0;" parent="1" source="BJFS6aXyt-6OG1DivZ-b-9" target="BJFS6aXyt-6OG1DivZ-b-19" edge="1">
          <mxGeometry relative="1" as="geometry">
            <mxPoint x="670" y="190" as="targetPoint" />
          </mxGeometry>
        </mxCell>
        <mxCell id="BJFS6aXyt-6OG1DivZ-b-22" value="Text" style="edgeLabel;html=1;align=center;verticalAlign=middle;resizable=0;points=[];fontSize=12;fontFamily=Helvetica;fontColor=default;" parent="BJFS6aXyt-6OG1DivZ-b-20" vertex="1" connectable="0">
          <mxGeometry x="1" y="8" relative="1" as="geometry">
            <mxPoint x="8" y="6" as="offset" />
          </mxGeometry>
        </mxCell>
        <mxCell id="BJFS6aXyt-6OG1DivZ-b-30" style="edgeStyle=orthogonalEdgeStyle;rounded=0;orthogonalLoop=1;jettySize=auto;html=1;exitX=0.25;exitY=1;exitDx=0;exitDy=0;entryX=0.25;entryY=0;entryDx=0;entryDy=0;fontFamily=Helvetica;fontSize=12;fontColor=default;" parent="1" source="BJFS6aXyt-6OG1DivZ-b-9" target="BJFS6aXyt-6OG1DivZ-b-27" edge="1">
          <mxGeometry relative="1" as="geometry" />
        </mxCell>
        <mxCell id="BJFS6aXyt-6OG1DivZ-b-9" value="&lt;font style=&quot;font-size: 30px;&quot;&gt;API&lt;/font&gt;" style="whiteSpace=wrap;html=1;aspect=fixed;strokeColor=default;align=center;verticalAlign=middle;fontFamily=Helvetica;fontSize=12;fontColor=default;fillColor=default;" parent="1" vertex="1">
          <mxGeometry x="440" y="160" width="120" height="120" as="geometry" />
        </mxCell>
        <mxCell id="BJFS6aXyt-6OG1DivZ-b-16" value="" style="edgeStyle=none;orthogonalLoop=1;jettySize=auto;html=1;rounded=0;fontFamily=Helvetica;fontSize=12;fontColor=default;" parent="1" edge="1">
          <mxGeometry width="100" relative="1" as="geometry">
            <mxPoint x="200" y="190" as="sourcePoint" />
            <mxPoint x="300" y="190" as="targetPoint" />
            <Array as="points" />
          </mxGeometry>
        </mxCell>
        <mxCell id="BJFS6aXyt-6OG1DivZ-b-18" style="edgeStyle=orthogonalEdgeStyle;rounded=0;orthogonalLoop=1;jettySize=auto;html=1;exitX=0.25;exitY=0;exitDx=0;exitDy=0;entryX=0;entryY=0.25;entryDx=0;entryDy=0;fontFamily=Helvetica;fontSize=12;fontColor=default;" parent="1" source="BJFS6aXyt-6OG1DivZ-b-17" target="BJFS6aXyt-6OG1DivZ-b-9" edge="1">
          <mxGeometry relative="1" as="geometry" />
        </mxCell>
        <mxCell id="BJFS6aXyt-6OG1DivZ-b-17" value="HTTP&lt;br&gt;リクエスト" style="rounded=0;whiteSpace=wrap;html=1;strokeColor=default;align=center;verticalAlign=middle;fontFamily=Helvetica;fontSize=12;fontColor=default;fillColor=default;direction=south;" parent="1" vertex="1">
          <mxGeometry x="280" y="160" width="70" height="120" as="geometry" />
        </mxCell>
        <mxCell id="BJFS6aXyt-6OG1DivZ-b-24" style="edgeStyle=orthogonalEdgeStyle;rounded=0;orthogonalLoop=1;jettySize=auto;html=1;exitX=1;exitY=0.5;exitDx=0;exitDy=0;fontFamily=Helvetica;fontSize=12;fontColor=default;" parent="1" source="BJFS6aXyt-6OG1DivZ-b-19" edge="1">
          <mxGeometry relative="1" as="geometry">
            <mxPoint x="675" y="440" as="targetPoint" />
          </mxGeometry>
        </mxCell>
        <mxCell id="BJFS6aXyt-6OG1DivZ-b-19" value="データ&lt;br&gt;処理" style="rounded=0;whiteSpace=wrap;html=1;strokeColor=default;align=center;verticalAlign=middle;fontFamily=Helvetica;fontSize=12;fontColor=default;fillColor=default;direction=south;" parent="1" vertex="1">
          <mxGeometry x="640" y="160" width="70" height="120" as="geometry" />
        </mxCell>
        <mxCell id="BJFS6aXyt-6OG1DivZ-b-25" style="edgeStyle=orthogonalEdgeStyle;rounded=0;orthogonalLoop=1;jettySize=auto;html=1;exitX=0.145;exitY=0;exitDx=0;exitDy=4.35;exitPerimeter=0;fontFamily=Helvetica;fontSize=12;fontColor=default;entryX=0.75;entryY=1;entryDx=0;entryDy=0;" parent="1" source="BJFS6aXyt-6OG1DivZ-b-23" target="BJFS6aXyt-6OG1DivZ-b-9" edge="1">
          <mxGeometry relative="1" as="geometry">
            <mxPoint x="606" y="230" as="targetPoint" />
          </mxGeometry>
        </mxCell>
        <mxCell id="BJFS6aXyt-6OG1DivZ-b-23" value="&lt;font style=&quot;font-size: 27px;&quot;&gt;DB&lt;/font&gt;" style="shape=cylinder3;whiteSpace=wrap;html=1;boundedLbl=1;backgroundOutline=1;size=15;strokeColor=default;align=center;verticalAlign=middle;fontFamily=Helvetica;fontSize=12;fontColor=default;fillColor=default;" parent="1" vertex="1">
          <mxGeometry x="590" y="450" width="110" height="120" as="geometry" />
        </mxCell>
        <mxCell id="BJFS6aXyt-6OG1DivZ-b-31" style="edgeStyle=orthogonalEdgeStyle;rounded=0;orthogonalLoop=1;jettySize=auto;html=1;exitX=0.25;exitY=1;exitDx=0;exitDy=0;entryX=1;entryY=0.75;entryDx=0;entryDy=0;fontFamily=Helvetica;fontSize=12;fontColor=default;" parent="1" source="BJFS6aXyt-6OG1DivZ-b-27" target="BJFS6aXyt-6OG1DivZ-b-2" edge="1">
          <mxGeometry relative="1" as="geometry" />
        </mxCell>
        <mxCell id="BJFS6aXyt-6OG1DivZ-b-27" value="HTTP&lt;br&gt;レスポンス" style="rounded=0;whiteSpace=wrap;html=1;strokeColor=default;align=center;verticalAlign=middle;fontFamily=Helvetica;fontSize=12;fontColor=default;fillColor=default;direction=south;" parent="1" vertex="1">
          <mxGeometry x="280" y="320" width="70" height="120" as="geometry" />
        </mxCell>
      </root>
    </mxGraphModel>
  </diagram>
</mxfile>
